<?xml version="1.0" encoding="UTF-8" standalone="no"?>
<svg
   xmlns:dc="http://purl.org/dc/elements/1.1/"
   xmlns:cc="http://creativecommons.org/ns#"
   xmlns:rdf="http://www.w3.org/1999/02/22-rdf-syntax-ns#"
   xmlns:svg="http://www.w3.org/2000/svg"
   xmlns="http://www.w3.org/2000/svg"
   xmlns:sodipodi="http://sodipodi.sourceforge.net/DTD/sodipodi-0.dtd"
   xmlns:inkscape="http://www.inkscape.org/namespaces/inkscape"
   id="Layer_1"
   version="1.1"
   viewBox="0 0 65 65"
   xml:space="preserve"
   inkscape:version="0.91 r13725"
   sodipodi:docname="like-gray.svg"
   width="65"
   height="65"><metadata
     id="metadata14"><rdf:RDF><cc:Work
         rdf:about=""><dc:format>image/svg+xml</dc:format><dc:type
           rdf:resource="http://purl.org/dc/dcmitype/StillImage" /><dc:title></dc:title></cc:Work></rdf:RDF></metadata><defs
     id="defs12" /><sodipodi:namedview
     pagecolor="#ffffff"
     bordercolor="#666666"
     borderopacity="1"
     objecttolerance="10"
     gridtolerance="10"
     guidetolerance="10"
     inkscape:pageopacity="0"
     inkscape:pageshadow="2"
     inkscape:window-width="640"
     inkscape:window-height="480"
     id="namedview10"
     showgrid="false"
     fit-margin-top="0"
     fit-margin-left="0"
     fit-margin-right="0"
     fit-margin-bottom="0"
     inkscape:zoom="9.078125"
     inkscape:cx="13.786575"
     inkscape:cy="35.496683"
     inkscape:current-layer="Layer_1" /><style
     type="text/css"
     id="style3">
	.st0{fill:#134563;}
</style><g
     id="g5"
     style="fill:#808080"
     transform="translate(0.5,-0.09380379)"><g
       id="Icon-Like"
       transform="translate(78,528)"
       style="fill:#808080"><path
         class="st0"
         d="m -22,-495.6 c 0,-3.2 -2.5,-4.9 -6,-4.9 l -10.1,0 c 0.7,-2.7 1.1,-5.3 1.1,-7.5 0,-8.7 -2.4,-10.5 -4.5,-10.5 -1.4,0 -2.4,0.1 -3.8,1 -0.4,0.2 -0.6,0.6 -0.7,1 l -1.5,8.1 c -1.6,4.3 -5.7,8 -9,10.5 l 0,21.4 c 1.1,0 2.5,0.6 3.8,1.3 1.6,0.8 3.3,1.6 5.2,1.6 l 14.3,0 c 3,0 5.2,-2.4 5.2,-4.5 0,-0.4 0,-0.8 -0.1,-1.1 1.9,-0.7 3.1,-2.3 3.1,-4.1 0,-0.9 -0.2,-1.7 -0.5,-2.3 1.1,-0.8 2.3,-2.1 2.3,-3.7 0,-0.8 -0.4,-1.8 -1,-2.5 1.3,-1 2.2,-2.4 2.2,-3.8 l 0,0 z m -3.1,0 c 0,1.9 -2,2.1 -2.3,3 -0.3,1 1.2,1.4 1.2,3.2 0,1.9 -2.3,1.9 -2.6,2.8 -0.4,1.1 0.7,1.5 0.7,3.3 0,0.1 0,0.2 0,0.3 -0.3,1.5 -2.6,1.6 -3,2.2 -0.4,0.7 0.1,1.1 0.1,2.7 0,0.9 -1,1.5 -2.2,1.5 l -14.3,0 c -1.1,0 -2.5,-0.6 -3.8,-1.3 -1.2,-0.6 -2.4,-1.2 -3.7,-1.5 l 0,-15.9 c 3.7,-2.8 8.5,-7.1 10.4,-12.3 0,-0.1 0,-0.2 0.1,-0.2 l 1.4,-7.5 c 0.5,-0.2 0.9,-0.2 1.7,-0.2 0.3,0 1.5,1.8 1.5,7.5 0,2.2 -0.4,4.7 -1.2,7.5 l -0.4,0 c -0.8,0 -1.5,0.7 -1.5,1.5 0,0.8 0.7,1.5 1.5,1.5 l 13.5,0 c 1.5,0 2.9,0.7 2.9,1.9 l 0,0 z"
         id="Fill-4_2_"
         style="fill:#808080"
         inkscape:connector-curvature="0" /><path
         class="st0"
         d="m -58,-473.5 -9,0 c -1.7,0 -3,-1.3 -3,-3 l 0,-21 c 0,-1.7 1.3,-3 3,-3 l 9,0 c 1.7,0 3,1.3 3,3 l 0,21 c 0,1.7 -1.3,3 -3,3 l 0,0 z m -9,-24 0,21 9,0 0,-21 -9,0 0,0 z m -3,-21"
         id="Fill-6_2_"
         style="fill:#808080"
         inkscape:connector-curvature="0" /></g></g></svg>